<svg width="256" height="256" viewBox="0 0 256 256" fill="none" xmlns="http://www.w3.org/2000/svg">
<path d="M252.05 100.097C251.123 96.5536 246.487 93.8962 242.778 94.782C239.069 95.6678 236.287 98.3253 236.287 102.754C236.287 106.298 236.287 109.841 235.36 113.384C235.36 126.671 228.869 146.159 225.161 150.588C220.525 159.446 210.325 164.761 200.126 164.761C184.363 164.761 170.455 152.36 170.455 136.415C170.455 127.557 174.164 120.471 180.654 115.156C195.49 101.869 222.379 97.4394 222.379 69.9792C222.379 58.4637 213.107 47.8339 207.543 42.519C204.762 38.9758 200.126 37.2042 198.271 33.6609C196.417 30.1176 197.344 21.2595 197.344 21.2595C199.199 10.6298 185.29 6.20069 172.309 13.2872C168.6 15.0588 164.891 15.9446 160.255 15.9446C148.201 12.4014 128.73 11.5156 118.53 12.4014C116.676 12.4014 114.822 11.5156 113.894 10.6298C109.258 3.54325 100.913 0 91.6411 0C78.6601 0 65.679 7.0865 61.0429 20.3737C58.2613 28.346 53.6252 34.5467 47.1347 39.8616C22.0998 59.3495 4.48262 88.5813 0.773744 121.356C-7.57122 194.879 52.698 256 127.803 256C198.271 256 255.759 201.08 255.759 133.758C256.686 116.927 254.832 107.183 252.05 100.097ZM89.7867 8.85813C102.768 8.85813 113.894 17.7163 113.894 28.346C113.894 38.9758 102.768 35.4325 89.7867 35.4325C76.8057 35.4325 67.5335 38.9758 67.5335 28.346C67.5335 17.7163 76.8057 8.85813 89.7867 8.85813ZM156.546 188.678C114.822 188.678 80.5145 157.675 77.7329 118.699C75.8784 112.498 72.1696 106.298 67.5335 101.869C64.7518 99.2111 57.3341 93.0104 57.3341 93.0104C54.5524 90.3529 54.5524 85.9239 57.3341 83.2664C60.1157 80.609 63.8246 80.609 66.6063 83.2664C83.2962 95.6678 103.695 95.6678 107.404 95.6678C129.657 94.782 149.129 88.5813 167.673 79.7232C190.854 69.0934 207.543 67.3218 207.543 78.8374C207.543 97.4394 151.91 100.983 150.983 135.529C150.056 169.19 173.236 171.848 173.236 178.934C174.164 183.363 172.309 188.678 156.546 188.678Z" fill="white"/>
</svg>
