<svg width="96" height="10" viewBox="0 0 96 10" fill="none" xmlns="http://www.w3.org/2000/svg">
<path d="M1.74017 1.41429L2.03488 1.11429C2.34362 1.41429 2.62429 1.61429 2.86286 1.75714V4.17143L1.74017 5.31429V1.41429ZM2.86286 8.58571L2.56816 8.87143C2.25942 8.58571 1.97874 8.37143 1.74017 8.24286V5.78571L2.86286 4.64286V8.58571ZM4.16799 1.74286C4.43463 1.47143 4.5469 1.05714 4.60304 0.814286C4.47673 1 3.81715 1.15714 2.68043 0L0.435043 2.27143V8.25714C0.168404 8.52857 0.0561346 8.92857 0 9.17143C0.126303 9 0.785884 8.82857 1.93664 10L4.16799 7.72857V1.74286Z" fill="white"/>
<path d="M92.603 1.75714L92.8416 1.98571L93.7398 1.07143C93.8801 1.2 93.9503 1.4 93.9503 1.6V8.27143C93.6135 8.48571 93.417 8.9 93.3608 9.17143C93.4731 9 93.7257 8.82857 94.8765 10L95.7606 9.1C95.5782 8.88571 95.4098 8.7 95.2554 8.57143V0.928571C95.2554 0.528571 94.68 0 94.3292 0L92.603 1.75714Z" fill="white"/>
<path d="M14 5L84 5.00001" stroke="white"/>
</svg>
